<!-- <svg xmlns="http://www.w3.org/2000/svg" width="100" height="100" viewBox="0 0 100 100">
    <title>资源 1</title>
    <g>
        <rect width="100" height="100" fill="#07c160"/>
        <path d="M39.061,44.018a4.375,4.375,0,1,1,4.374-4.375,4.375,4.375,0,0,1-4.374,4.375m21.877,0a4.375,4.375,0,1,1,4.376-4.375,4.375,4.375,0,0,1-4.376,4.375M28.522,69.063a2.184,2.184,0,0,1,.92,1.782,2.581,2.581,0,0,1-.116.7c-.552,2.06-1.437,5.361-1.478,5.516a3.237,3.237,0,0,0-.177.8,1.093,1.093,0,0,0,1.094,1.093,1.243,1.243,0,0,0,.633-.2L36.581,74.6a3.427,3.427,0,0,1,1.742-.5,3.3,3.3,0,0,1,.965.144A38.825,38.825,0,0,0,50,75.739c18.123,0,32.816-12.242,32.816-27.346S68.122,21.049,50,21.049,17.185,33.29,17.185,48.393c0,8.239,4.42,15.656,11.337,20.67" fill="#fff"/>
    </g>
</svg> -->

<svg xmlns="http://www.w3.org/2000/svg" xmlns:xlink="http://www.w3.org/1999/xlink" version="1.1" width="125px" height="125px" style="shape-rendering:geometricPrecision; text-rendering:geometricPrecision; image-rendering:optimizeQuality; fill-rule:evenodd; clip-rule:evenodd">
     <title>资源 1</title>
<g><path style="opacity:0.975" fill="#fdfefe" d="M 70.5,2.5 C 57.1638,39.171 43.8305,75.8377 30.5,112.5C 7.76255,97.6706 -1.40412,76.6706 3,49.5C 9.16667,24.6667 24.6667,9.16667 49.5,3C 56.4921,2.50038 63.4921,2.33371 70.5,2.5 Z"/></g>
<g><path style="opacity:1" fill="#6f7bf2" d="M 70.5,2.5 C 96.9878,7.82202 113.821,23.4887 121,49.5C 125.019,86.6517 109.185,110.485 73.5,121C 61.1249,122.61 49.1249,121.277 37.5,117C 34.7613,115.974 32.428,114.474 30.5,112.5C 43.8305,75.8377 57.1638,39.171 70.5,2.5 Z"/></g>
<g><path style="opacity:1" fill="#ec4e3e" d="M 19.5,58.5 C 17.8333,57.5 16.5,56.1667 15.5,54.5C 21.2402,45.4842 28.5735,44.1508 37.5,50.5C 36.6872,51.8139 35.6872,52.9805 34.5,54C 31.3484,52.8141 28.0151,52.4807 24.5,53C 21.9441,54.0545 20.2775,55.8878 19.5,58.5 Z"/></g>
<g><path style="opacity:1" fill="#f7f8fe" d="M 72.5,62.5 C 69.8333,62.5 67.1667,62.5 64.5,62.5C 64.5,66.1667 64.5,69.8333 64.5,73.5C 63.5,73.5 62.5,73.5 61.5,73.5C 61.5,64.8333 61.5,56.1667 61.5,47.5C 65.5138,47.3345 69.5138,47.5012 73.5,48C 77.8608,50.2258 79.3608,53.7258 78,58.5C 76.549,60.4641 74.7157,61.7974 72.5,62.5 Z"/></g>
<g><path style="opacity:1" fill="#707cf2" d="M 64.5,50.5 C 67.1873,50.3359 69.854,50.5026 72.5,51C 75.0701,53.718 75.0701,56.3847 72.5,59C 69.854,59.4974 67.1873,59.6641 64.5,59.5C 64.5,56.5 64.5,53.5 64.5,50.5 Z"/></g>
<g><path style="opacity:1" fill="#f0f1fd" d="M 81.5,55.5 C 85.5839,55.0431 89.4172,55.7098 93,57.5C 94.3967,62.7081 94.8967,68.0414 94.5,73.5C 92.8762,73.6399 91.7096,72.9733 91,71.5C 86.6146,75.756 82.6146,75.4227 79,70.5C 77.9595,67.3637 78.7928,64.8637 81.5,63C 84.8649,61.5564 88.1982,61.0564 91.5,61.5C 88.7101,57.9532 85.5434,57.6198 82,60.5C 78.9799,59.1781 78.8132,57.5114 81.5,55.5 Z"/></g>
<g><path style="opacity:1" fill="#f2f3fd" d="M 95.5,55.5 C 96.8221,55.33 97.9887,55.6634 99,56.5C 100.667,60.1667 102.333,63.8333 104,67.5C 105.941,63.9523 107.607,60.2857 109,56.5C 110.183,55.269 111.349,55.269 112.5,56.5C 109.391,63.051 106.558,69.7177 104,76.5C 103.359,78.8132 102.026,80.4798 100,81.5C 99.5,81.1667 99,80.8333 98.5,80.5C 99.8333,77.8333 101.167,75.1667 102.5,72.5C 99.8777,66.9261 97.5444,61.2594 95.5,55.5 Z"/></g>
<g><path style="opacity:1" fill="#f8bc16" d="M 15.5,54.5 C 16.5,56.1667 17.8333,57.5 19.5,58.5C 19.5,60.5 19.5,62.5 19.5,64.5C 17.9991,65.7515 16.3325,66.7515 14.5,67.5C 12.869,62.8796 13.2024,58.5463 15.5,54.5 Z"/></g>
<g><path style="opacity:1" fill="#4d8af4" d="M 36.5,71.5 C 35.5,70.8333 34.5,70.1667 33.5,69.5C 33.7031,67.9557 34.3698,66.6223 35.5,65.5C 32.9135,64.52 30.2469,64.1866 27.5,64.5C 27.5,62.5 27.5,60.5 27.5,58.5C 32.1667,58.5 36.8333,58.5 41.5,58.5C 41.9651,62.7924 41.1318,66.7924 39,70.5C 38.3292,71.2524 37.4959,71.5858 36.5,71.5 Z"/></g>
<g><path style="opacity:1" fill="#99a2f5" d="M 72.5,62.5 C 70.3926,63.4682 68.0593,63.8016 65.5,63.5C 65.8128,67.0419 65.4794,70.3752 64.5,73.5C 64.5,69.8333 64.5,66.1667 64.5,62.5C 67.1667,62.5 69.8333,62.5 72.5,62.5 Z"/></g>
<g><path style="opacity:1" fill="#39a955" d="M 19.5,64.5 C 22.5947,70.3582 27.2613,72.0249 33.5,69.5C 34.5,70.1667 35.5,70.8333 36.5,71.5C 36.2435,73.7761 34.9102,74.9428 32.5,75C 24.4271,77.1226 18.4271,74.6226 14.5,67.5C 16.3325,66.7515 17.9991,65.7515 19.5,64.5 Z"/></g>
<g><path style="opacity:1" fill="#747ff2" d="M 84.5,64.5 C 93.2821,64.9553 93.7821,67.2886 86,71.5C 81.9055,69.9696 81.4055,67.6362 84.5,64.5 Z"/></g>
</svg>